HIERARCHY
ROOT SpineBase
{
  OFFSET 0.000000 0.000000 0.000000
  CHANNELS 6 Xposition Yposition Zposition Zrotation Xrotation Yrotation
  JOINT SpineMid
  {
    OFFSET 0.000000 31.695117 0.000000
    CHANNELS 3 Zrotation Xrotation Yrotation
    JOINT SpineShoulder
    {
      OFFSET -0.235845 23.496523 -1.182234
      CHANNELS 3 Zrotation Xrotation Yrotation
      JOINT Neck
      {
        OFFSET -0.103448 7.796731 -0.865924
        CHANNELS 3 Zrotation Xrotation Yrotation
        JOINT Head
        {
          OFFSET 2.153372 13.247413 4.867378
          CHANNELS 3 Zrotation Xrotation Yrotation
          End Site
          {
            OFFSET 0 0 0
          }
        }
      }
      JOINT ShoulderLeft
      {
        OFFSET -11.226507 -3.471916 -11.864111
        CHANNELS 3 Zrotation Xrotation Yrotation
        JOINT ElbowLeft
        {
          OFFSET -9.120363 -25.459650 -8.997848
          CHANNELS 3 Zrotation Xrotation Yrotation
          JOINT WristLeft
          {
            OFFSET -1.402738 -21.350145 -10.251261
            CHANNELS 3 Zrotation Xrotation Yrotation
            JOINT HandLeft
            {
              OFFSET 0.153827 -7.893878 -3.299749
              CHANNELS 3 Zrotation Xrotation Yrotation
              JOINT HandTipLeft
              {
                OFFSET -0.157347 -7.444277 -2.170570
                CHANNELS 3 Zrotation Xrotation Yrotation
                End Site
                {
                  OFFSET 0 0 0
                }
              }
              JOINT ThumbLeft
              {
                OFFSET -2.507072 -0.794028 -2.325974
                CHANNELS 3 Zrotation Xrotation Yrotation
                End Site
                {
                  OFFSET 0 0 0
                }
              }
            }
          }
        }
      }
      JOINT ShoulderRight
      {
        OFFSET 12.846798 -3.708834 11.203629
        CHANNELS 3 Zrotation Xrotation Yrotation
        JOINT ElbowRight
        {
          OFFSET 3.930654 -26.904680 4.963748
          CHANNELS 3 Zrotation Xrotation Yrotation
          JOINT WristRight
          {
            OFFSET 3.662690 -27.629062 0.271800
            CHANNELS 3 Zrotation Xrotation Yrotation
            JOINT HandRight
            {
              OFFSET 0.918721 -5.941625 -0.420803
              CHANNELS 3 Zrotation Xrotation Yrotation
              JOINT HandTipRight
              {
                OFFSET 1.768166 -5.144530 -1.058987
                CHANNELS 3 Zrotation Xrotation Yrotation
                End Site
                {
                  OFFSET 0 0 0
                }
              }
              JOINT ThumbRight
              {
                OFFSET -0.683985 -1.047136 -1.742660
                CHANNELS 3 Zrotation Xrotation Yrotation
                End Site
                {
                  OFFSET 0 0 0
                }
              }
            }
          }
        }
      }
    }
  }
  JOINT HipLeft
  {
    OFFSET -5.322789 1.695272 -7.279077
    CHANNELS 3 Zrotation Xrotation Yrotation
    JOINT KneeLeft
    {
      OFFSET -4.378023 -36.182272 -4.698487
      CHANNELS 3 Zrotation Xrotation Yrotation
      JOINT AnkleLeft
      {
        OFFSET -2.842377 -38.184622 5.560057
        CHANNELS 3 Zrotation Xrotation Yrotation
        JOINT FootLeft
        {
          OFFSET 2.686915 -7.933948 -5.536482
          CHANNELS 3 Zrotation Xrotation Yrotation
          End Site
          {
            OFFSET 0 0 0
          }
        }
      }
    }
  }
  JOINT HipRight
  {
    OFFSET 6.027492 0.326511 0.380348
    CHANNELS 3 Zrotation Xrotation Yrotation
    JOINT KneeRight
    {
      OFFSET 1.911437 -38.255743 2.340629
      CHANNELS 3 Zrotation Xrotation Yrotation
      JOINT AnkleRight
      {
        OFFSET -5.977302 -37.280168 7.688989
        CHANNELS 3 Zrotation Xrotation Yrotation
        JOINT FootRight
        {
          OFFSET 2.791281 -8.123173 -4.422795
          CHANNELS 3 Zrotation Xrotation Yrotation
          End Site
          {
            OFFSET 0 0 0
          }
        }
      }
    }
  }
}
MOTION
Frames: 8
Frame Time: 0.033333
-37.110793 83.472171 335.036947 -0.000000 0.000000 -34.012363 0.000000 -0.000000 34.012363 -0.000000 0.000000 0.000000 -0.000000 0.000000 0.000000 0.000000 0.000000 0.000000 -0.000000 0.000000 0.000000 -0.000000 0.000000 0.000000 -0.000000 0.000000 0.000000 -0.000000 0.000000 0.000000 0.000000 0.000000 0.000000 0.000000 0.000000 0.000000 -0.000000 0.000000 0.000000 -0.000000 0.000000 0.000000 -0.000000 0.000000 0.000000 -0.000000 0.000000 0.000000 0.000000 0.000000 0.000000 0.000000 0.000000 0.000000 0.000000 -0.000000 34.012363 -0.000000 0.000000 0.000000 -0.000000 0.000000 0.000000 0.000000 0.000000 0.000000 0.000000 -0.000000 34.012363 -0.000000 0.000000 0.000000 -0.000000 0.000000 0.000000 0.000000 0.000000 0.000000
-36.275532 83.699997 334.622371 1.049473 0.343434 -34.903968 -0.664251 -0.882118 34.895709 -0.000000 0.000000 0.000000 -0.000000 0.000000 0.000000 0.000000 0.000000 0.000000 2.584701 -0.779446 -0.623352 0.361929 -2.011654 -0.546133 -0.398997 -4.030709 0.158066 0.600273 4.945098 0.129740 0.000000 0.000000 0.000000 0.000000 0.000000 0.000000 -0.000000 0.000000 0.000000 -0.000000 0.000000 0.000000 2.823394 1.527385 -0.001452 -4.481000 2.102939 1.520978 0.000000 0.000000 0.000000 0.000000 0.000000 0.000000 -1.285682 -1.898630 35.080083 1.092697 0.474633 -0.203980 -0.000000 0.000000 0.000000 0.000000 0.000000 0.000000 -1.521277 -2.084061 34.763644 1.389291 0.498559 0.103837 1.837821 1.319915 -0.561697 0.000000 0.000000 0.000000
-35.486956 83.898432 334.294413 2.002613 0.628641 -35.711504 -0.803507 -0.424523 35.753466 -0.814982 0.106619 -0.025333 -0.287798 -0.858382 -0.045472 0.000000 0.000000 0.000000 4.604420 -2.449578 -1.086439 0.918644 -4.040023 -1.064889 -0.823806 -7.677993 0.560153 0.874454 9.472881 0.067529 0.000000 0.000000 0.000000 0.000000 0.000000 0.000000 0.523681 -0.858860 0.116243 -0.952571 0.883283 -0.033057 4.745976 1.899691 -0.050229 -7.434363 3.510752 2.541341 0.000000 0.000000 0.000000 0.000000 0.000000 0.000000 -2.444754 -3.605142 36.003575 2.090500 0.860994 -0.391866 -0.000000 0.000000 0.000000 0.000000 0.000000 0.000000 -2.913817 -3.924510 35.395724 2.648244 0.871089 0.185320 3.363898 2.425964 -1.046907 0.000000 0.000000 0.000000
-34.745063 84.067476 334.053073 2.856558 0.854478 -36.429439 -1.108332 -0.569345 36.480929 -1.119081 0.182280 -0.030770 -0.508501 -1.234212 -0.078240 0.000000 0.000000 0.000000 6.375186 -3.646420 -1.397204 1.564783 -5.958140 -1.529170 -1.267984 -10.737548 1.153097 1.034840 13.232326 -0.129209 0.000000 0.000000 0.000000 0.000000 0.000000 0.000000 0.633742 -1.158995 0.167182 -1.333792 1.257719 -0.045980 5.647344 2.474615 -0.023107 -8.926648 4.224942 3.092850 0.000000 0.000000 0.000000 0.000000 0.000000 0.000000 -3.493961 -5.105440 36.789651 2.349623 0.501121 -0.593936 -0.111201 0.705664 0.583898 0.000000 0.000000 0.000000 -4.197185 -5.509617 35.918366 3.779133 1.118012 0.250019 4.584106 3.332958 -1.442309 0.000000 0.000000 0.000000
-34.049855 84.207129 333.898352 3.609028 1.020158 -37.053369 -1.350468 -0.662489 37.111717 -1.353009 0.273418 -0.030200 -0.780691 -1.574046 -0.118148 0.000000 0.000000 0.000000 7.748922 -4.798500 -1.565754 2.197625 -7.641700 -1.930171 -1.747469 -13.085946 1.853692 1.258260 15.956317 -0.428586 0.000000 0.000000 0.000000 0.000000 0.000000 0.000000 0.642269 -1.372761 0.210167 -1.651761 1.587239 -0.057305 5.700083 2.842506 0.048456 -9.033960 4.243448 3.204402 0.000000 0.000000 0.000000 0.000000 0.000000 0.000000 -4.448032 -6.388040 37.444626 2.938282 0.614226 -0.757489 -0.204306 0.711141 0.790622 0.000000 0.000000 0.000000 -5.388123 -6.829912 36.340515 4.784356 1.239941 0.302617 5.505006 4.054617 -1.738425 0.000000 0.000000 0.000000
-33.401331 84.317390 333.830248 4.258270 1.125190 -37.579999 -1.531283 -0.700142 37.645496 -1.515954 0.380317 -0.023015 -1.104535 -1.877561 -0.165410 0.000000 0.000000 0.000000 8.704284 -5.890972 -1.605975 2.736719 -8.990046 -2.276750 -2.312414 -14.655933 2.576523 1.684183 17.452069 -0.818512 0.000000 0.000000 0.000000 0.000000 0.000000 0.000000 0.549099 -1.500022 0.243344 -1.906581 1.871783 -0.067390 4.975986 3.025696 0.159548 -7.824652 3.548288 2.903059 0.000000 0.000000 0.000000 0.000000 0.000000 0.000000 -5.319480 -7.443741 37.974504 3.428696 0.700695 -0.900570 -0.324914 0.602134 1.002382 0.000000 0.000000 0.000000 -6.500495 -7.877689 36.670682 4.950311 0.651051 0.303761 6.852835 5.187245 -1.939958 0.000000 0.000000 0.000000
-32.702393 84.438530 333.799663 4.931406 1.174728 -38.062935 -1.680517 -0.671793 38.140556 -1.671757 0.576344 -0.010765 -1.902351 -0.915676 -0.315288 0.000000 0.000000 0.000000 9.022251 -7.346643 -1.320296 3.773251 -11.007474 -2.805427 -4.532057 -14.189400 3.893858 4.272917 15.734261 -2.299054 0.000000 0.000000 0.000000 0.000000 0.000000 0.000000 0.210587 -1.402960 0.270238 -1.833817 1.726903 -0.116940 2.427138 3.616294 0.432655 -2.476563 0.364252 1.334829 0.000000 0.000000 0.000000 0.000000 0.000000 0.000000 -6.174070 -8.506184 38.455069 3.845270 0.928730 -1.058805 -0.470283 0.427087 1.281500 0.000000 0.000000 0.000000 -7.702769 -8.713569 36.953560 5.717718 0.375651 0.350360 6.714067 5.446766 -1.810248 0.000000 0.000000 0.000000
-32.090893 84.501594 333.925147 5.412136 1.135648 -38.568660 -1.724228 -0.567693 38.664302 -1.690367 0.732305 0.014121 -2.855064 -0.673216 -0.310078 0.000000 0.000000 0.000000 9.070023 -8.566175 -1.040264 4.058946 -11.143580 -3.317058 -5.432017 -15.524605 4.735367 5.189464 15.834457 -2.953710 0.000000 0.000000 0.000000 0.000000 0.000000 0.000000 -0.027358 -1.615456 0.265798 -2.192159 2.473284 -0.068115 0.209018 2.897951 0.528932 1.071526 0.423180 1.142489 0.000000 0.000000 0.000000 0.000000 0.000000 0.000000 -6.918822 -9.179884 38.938920 4.144272 1.042472 -1.175464 -0.722107 0.063945 1.583351 0.000000 0.000000 0.000000 -8.783416 -9.170266 37.297996 6.219458 -0.075794 0.367261 6.795087 5.615832 -1.739256 0.000000 0.000000 0.000000
